<mxfile host="Electron" agent="Mozilla/5.0 (Windows NT 10.0; Win64; x64) AppleWebKit/537.36 (KHTML, like Gecko) draw.io/25.0.2 Chrome/128.0.6613.186 Electron/32.2.5 Safari/537.36" version="25.0.2">
  <diagram name="Página-1" id="hDO83gWSCI8Xfug_nnzE">
    <mxGraphModel dx="1499" dy="884" grid="1" gridSize="10" guides="1" tooltips="1" connect="1" arrows="1" fold="1" page="1" pageScale="1" pageWidth="1654" pageHeight="1169" math="0" shadow="0">
      <root>
        <mxCell id="0" />
        <mxCell id="1" parent="0" />
        <mxCell id="hDYPPicwK_5DRnvfB0r1-2" value="" style="whiteSpace=wrap;html=1;aspect=fixed;" parent="1" vertex="1">
          <mxGeometry x="40" y="20" width="120" height="120" as="geometry" />
        </mxCell>
        <mxCell id="hDYPPicwK_5DRnvfB0r1-13" value="ESP8266" style="rounded=0;whiteSpace=wrap;html=1;" parent="1" vertex="1">
          <mxGeometry x="720" y="280" width="60" height="82.5" as="geometry" />
        </mxCell>
        <mxCell id="JbGsMbYujRYo7UXqijJR-1" value="" style="group" vertex="1" connectable="0" parent="1">
          <mxGeometry y="282.5" width="160" height="80" as="geometry" />
        </mxCell>
        <mxCell id="hDYPPicwK_5DRnvfB0r1-21" value="Batería Backup" style="rounded=0;whiteSpace=wrap;html=1;" parent="JbGsMbYujRYo7UXqijJR-1" vertex="1">
          <mxGeometry width="160" height="80" as="geometry" />
        </mxCell>
        <mxCell id="hDYPPicwK_5DRnvfB0r1-113" value="-" style="text;html=1;align=center;verticalAlign=middle;resizable=0;points=[];autosize=1;strokeColor=none;fillColor=none;fontSize=20;" parent="JbGsMbYujRYo7UXqijJR-1" vertex="1">
          <mxGeometry x="132" y="46.66333333333333" width="30" height="40" as="geometry" />
        </mxCell>
        <mxCell id="hDYPPicwK_5DRnvfB0r1-114" value="+" style="text;html=1;align=center;verticalAlign=middle;resizable=0;points=[];autosize=1;strokeColor=none;fillColor=none;fontSize=20;" parent="JbGsMbYujRYo7UXqijJR-1" vertex="1">
          <mxGeometry x="128" y="-6.67" width="40" height="40" as="geometry" />
        </mxCell>
        <mxCell id="JbGsMbYujRYo7UXqijJR-4" value="" style="group" vertex="1" connectable="0" parent="1">
          <mxGeometry x="46.870000000000005" y="40" width="106.25" height="83.75" as="geometry" />
        </mxCell>
        <mxCell id="hDYPPicwK_5DRnvfB0r1-18" value="" style="verticalLabelPosition=bottom;shadow=0;dashed=0;align=center;html=1;verticalAlign=top;shape=mxgraph.electrical.opto_electronics.solar_cell;pointerEvents=1;rotation=-90;" parent="JbGsMbYujRYo7UXqijJR-4" vertex="1">
          <mxGeometry x="35" y="12.5" width="83.75" height="58.75" as="geometry" />
        </mxCell>
        <mxCell id="hDYPPicwK_5DRnvfB0r1-19" value="Panel solar" style="text;html=1;align=center;verticalAlign=middle;resizable=0;points=[];autosize=1;strokeColor=none;fillColor=none;" parent="JbGsMbYujRYo7UXqijJR-4" vertex="1">
          <mxGeometry y="66.25" width="80" height="30" as="geometry" />
        </mxCell>
        <mxCell id="JbGsMbYujRYo7UXqijJR-6" value="" style="html=1;verticalLabelPosition=bottom;align=center;labelBackgroundColor=#ffffff;verticalAlign=top;strokeWidth=2;shadow=0;dashed=0;shape=mxgraph.ios7.icons.sun;pointerEvents=1" vertex="1" parent="1">
          <mxGeometry x="51.879999999999995" y="30" width="40" height="37.5" as="geometry" />
        </mxCell>
        <mxCell id="JbGsMbYujRYo7UXqijJR-11" value="" style="group" vertex="1" connectable="0" parent="1">
          <mxGeometry x="720" y="160" width="160" height="80" as="geometry" />
        </mxCell>
        <mxCell id="JbGsMbYujRYo7UXqijJR-12" value="Batería 2" style="rounded=0;whiteSpace=wrap;html=1;" vertex="1" parent="JbGsMbYujRYo7UXqijJR-11">
          <mxGeometry width="160" height="80" as="geometry" />
        </mxCell>
        <mxCell id="JbGsMbYujRYo7UXqijJR-13" value="-" style="text;html=1;align=center;verticalAlign=middle;resizable=0;points=[];autosize=1;strokeColor=none;fillColor=none;fontSize=20;" vertex="1" parent="JbGsMbYujRYo7UXqijJR-11">
          <mxGeometry x="-6" y="46.66333333333333" width="30" height="40" as="geometry" />
        </mxCell>
        <mxCell id="JbGsMbYujRYo7UXqijJR-14" value="+" style="text;html=1;align=center;verticalAlign=middle;resizable=0;points=[];autosize=1;strokeColor=none;fillColor=none;fontSize=20;" vertex="1" parent="JbGsMbYujRYo7UXqijJR-11">
          <mxGeometry x="-10" y="-6.67" width="40" height="40" as="geometry" />
        </mxCell>
        <mxCell id="JbGsMbYujRYo7UXqijJR-22" value="" style="whiteSpace=wrap;html=1;aspect=fixed;" vertex="1" parent="1">
          <mxGeometry x="240" y="162.5" width="80" height="80" as="geometry" />
        </mxCell>
        <mxCell id="JbGsMbYujRYo7UXqijJR-23" value="" style="endArrow=none;html=1;rounded=0;edgeStyle=orthogonalEdgeStyle;entryX=0;entryY=0.25;entryDx=0;entryDy=0;" edge="1" parent="1" target="JbGsMbYujRYo7UXqijJR-15">
          <mxGeometry width="50" height="50" relative="1" as="geometry">
            <mxPoint x="160" y="82.5" as="sourcePoint" />
            <mxPoint x="400" y="182.5" as="targetPoint" />
            <Array as="points">
              <mxPoint x="401" y="82.5" />
              <mxPoint x="401" y="192.5" />
              <mxPoint x="480" y="192.5" />
            </Array>
          </mxGeometry>
        </mxCell>
        <mxCell id="JbGsMbYujRYo7UXqijJR-24" value="" style="endArrow=none;html=1;rounded=0;exitX=0.5;exitY=0;exitDx=0;exitDy=0;" edge="1" parent="1" source="JbGsMbYujRYo7UXqijJR-22">
          <mxGeometry width="50" height="50" relative="1" as="geometry">
            <mxPoint x="330" y="222.5" as="sourcePoint" />
            <mxPoint x="280" y="82.5" as="targetPoint" />
          </mxGeometry>
        </mxCell>
        <mxCell id="JbGsMbYujRYo7UXqijJR-25" value="" style="endArrow=none;html=1;rounded=0;edgeStyle=orthogonalEdgeStyle;entryX=0;entryY=0.75;entryDx=0;entryDy=0;" edge="1" parent="1" target="JbGsMbYujRYo7UXqijJR-15">
          <mxGeometry width="50" height="50" relative="1" as="geometry">
            <mxPoint x="160" y="322.5" as="sourcePoint" />
            <mxPoint x="400" y="222.5" as="targetPoint" />
            <Array as="points">
              <mxPoint x="400" y="322.5" />
              <mxPoint x="400" y="212.5" />
              <mxPoint x="480" y="212.5" />
            </Array>
          </mxGeometry>
        </mxCell>
        <mxCell id="JbGsMbYujRYo7UXqijJR-26" value="" style="endArrow=none;html=1;rounded=0;entryX=0.5;entryY=1;entryDx=0;entryDy=0;" edge="1" parent="1">
          <mxGeometry width="50" height="50" relative="1" as="geometry">
            <mxPoint x="290" y="322.5" as="sourcePoint" />
            <mxPoint x="289.9999999999998" y="242.5" as="targetPoint" />
          </mxGeometry>
        </mxCell>
        <mxCell id="JbGsMbYujRYo7UXqijJR-27" value="" style="endArrow=none;html=1;rounded=0;edgeStyle=orthogonalEdgeStyle;" edge="1" parent="1">
          <mxGeometry width="50" height="50" relative="1" as="geometry">
            <mxPoint x="559" y="202.5" as="sourcePoint" />
            <mxPoint x="722" y="82.5" as="targetPoint" />
            <Array as="points">
              <mxPoint x="639" y="202.5" />
              <mxPoint x="639" y="82.5" />
              <mxPoint x="699" y="82.5" />
            </Array>
          </mxGeometry>
        </mxCell>
        <mxCell id="JbGsMbYujRYo7UXqijJR-7" value="" style="group" vertex="1" connectable="0" parent="1">
          <mxGeometry x="720" y="40" width="160" height="80" as="geometry" />
        </mxCell>
        <mxCell id="JbGsMbYujRYo7UXqijJR-8" value="Batería 1" style="rounded=0;whiteSpace=wrap;html=1;" vertex="1" parent="JbGsMbYujRYo7UXqijJR-7">
          <mxGeometry width="160" height="80" as="geometry" />
        </mxCell>
        <mxCell id="JbGsMbYujRYo7UXqijJR-9" value="-" style="text;html=1;align=center;verticalAlign=middle;resizable=0;points=[];autosize=1;strokeColor=none;fillColor=none;fontSize=20;" vertex="1" parent="JbGsMbYujRYo7UXqijJR-7">
          <mxGeometry x="-6" y="46.66333333333333" width="30" height="40" as="geometry" />
        </mxCell>
        <mxCell id="JbGsMbYujRYo7UXqijJR-10" value="+" style="text;html=1;align=center;verticalAlign=middle;resizable=0;points=[];autosize=1;strokeColor=none;fillColor=none;fontSize=20;" vertex="1" parent="JbGsMbYujRYo7UXqijJR-7">
          <mxGeometry x="-10" y="-6.67" width="40" height="40" as="geometry" />
        </mxCell>
        <mxCell id="JbGsMbYujRYo7UXqijJR-15" value="" style="whiteSpace=wrap;html=1;aspect=fixed;" vertex="1" parent="1">
          <mxGeometry x="480" y="162.5" width="80" height="80" as="geometry" />
        </mxCell>
        <mxCell id="JbGsMbYujRYo7UXqijJR-28" value="" style="endArrow=none;html=1;rounded=0;" edge="1" parent="1">
          <mxGeometry width="50" height="50" relative="1" as="geometry">
            <mxPoint x="630" y="202.5" as="sourcePoint" />
            <mxPoint x="720" y="202.5" as="targetPoint" />
          </mxGeometry>
        </mxCell>
        <mxCell id="JbGsMbYujRYo7UXqijJR-30" value="" style="endArrow=none;html=1;rounded=0;edgeStyle=orthogonalEdgeStyle;" edge="1" parent="1">
          <mxGeometry width="50" height="50" relative="1" as="geometry">
            <mxPoint x="559" y="202.5" as="sourcePoint" />
            <mxPoint x="720" y="322.5" as="targetPoint" />
            <Array as="points">
              <mxPoint x="639" y="202.5" />
              <mxPoint x="639" y="322.5" />
              <mxPoint x="720" y="322.5" />
            </Array>
          </mxGeometry>
        </mxCell>
        <mxCell id="JbGsMbYujRYo7UXqijJR-32" value="" style="html=1;shape=mxgraph.electrical.electro-mechanical.twoWaySwitch;aspect=fixed;elSwitchState=2;rotation=90;" vertex="1" parent="1">
          <mxGeometry x="242.5" y="189.5" width="75" height="26" as="geometry" />
        </mxCell>
        <mxCell id="JbGsMbYujRYo7UXqijJR-33" value="" style="html=1;shape=mxgraph.electrical.electro-mechanical.twoWaySwitch;aspect=fixed;elSwitchState=2;rotation=-180;flipV=1;" vertex="1" parent="1">
          <mxGeometry x="482.5" y="189.5" width="75" height="26" as="geometry" />
        </mxCell>
        <mxCell id="JbGsMbYujRYo7UXqijJR-34" value="" style="whiteSpace=wrap;html=1;aspect=fixed;" vertex="1" parent="1">
          <mxGeometry x="40" y="420" width="120" height="120" as="geometry" />
        </mxCell>
        <mxCell id="JbGsMbYujRYo7UXqijJR-35" value="ESP8266" style="rounded=0;whiteSpace=wrap;html=1;" vertex="1" parent="1">
          <mxGeometry x="720" y="680" width="60" height="82.5" as="geometry" />
        </mxCell>
        <mxCell id="JbGsMbYujRYo7UXqijJR-36" value="" style="group" vertex="1" connectable="0" parent="1">
          <mxGeometry y="682.5" width="160" height="80" as="geometry" />
        </mxCell>
        <mxCell id="JbGsMbYujRYo7UXqijJR-37" value="Batería Backup" style="rounded=0;whiteSpace=wrap;html=1;" vertex="1" parent="JbGsMbYujRYo7UXqijJR-36">
          <mxGeometry width="160" height="80" as="geometry" />
        </mxCell>
        <mxCell id="JbGsMbYujRYo7UXqijJR-38" value="-" style="text;html=1;align=center;verticalAlign=middle;resizable=0;points=[];autosize=1;strokeColor=none;fillColor=none;fontSize=20;" vertex="1" parent="JbGsMbYujRYo7UXqijJR-36">
          <mxGeometry x="132" y="46.66333333333333" width="30" height="40" as="geometry" />
        </mxCell>
        <mxCell id="JbGsMbYujRYo7UXqijJR-39" value="+" style="text;html=1;align=center;verticalAlign=middle;resizable=0;points=[];autosize=1;strokeColor=none;fillColor=none;fontSize=20;" vertex="1" parent="JbGsMbYujRYo7UXqijJR-36">
          <mxGeometry x="128" y="-6.67" width="40" height="40" as="geometry" />
        </mxCell>
        <mxCell id="JbGsMbYujRYo7UXqijJR-40" value="" style="group" vertex="1" connectable="0" parent="1">
          <mxGeometry x="46.870000000000005" y="440" width="106.25" height="83.75" as="geometry" />
        </mxCell>
        <mxCell id="JbGsMbYujRYo7UXqijJR-41" value="" style="verticalLabelPosition=bottom;shadow=0;dashed=0;align=center;html=1;verticalAlign=top;shape=mxgraph.electrical.opto_electronics.solar_cell;pointerEvents=1;rotation=-90;" vertex="1" parent="JbGsMbYujRYo7UXqijJR-40">
          <mxGeometry x="35" y="12.5" width="83.75" height="58.75" as="geometry" />
        </mxCell>
        <mxCell id="JbGsMbYujRYo7UXqijJR-42" value="Panel solar" style="text;html=1;align=center;verticalAlign=middle;resizable=0;points=[];autosize=1;strokeColor=none;fillColor=none;" vertex="1" parent="JbGsMbYujRYo7UXqijJR-40">
          <mxGeometry y="66.25" width="80" height="30" as="geometry" />
        </mxCell>
        <mxCell id="JbGsMbYujRYo7UXqijJR-43" value="" style="html=1;verticalLabelPosition=bottom;align=center;labelBackgroundColor=#ffffff;verticalAlign=top;strokeWidth=2;shadow=0;dashed=0;shape=mxgraph.ios7.icons.sun;pointerEvents=1" vertex="1" parent="1">
          <mxGeometry x="51.879999999999995" y="430" width="40" height="37.5" as="geometry" />
        </mxCell>
        <mxCell id="JbGsMbYujRYo7UXqijJR-44" value="" style="group" vertex="1" connectable="0" parent="1">
          <mxGeometry x="720" y="562.5" width="160" height="80" as="geometry" />
        </mxCell>
        <mxCell id="JbGsMbYujRYo7UXqijJR-45" value="Batería 2" style="rounded=0;whiteSpace=wrap;html=1;" vertex="1" parent="JbGsMbYujRYo7UXqijJR-44">
          <mxGeometry width="160" height="80" as="geometry" />
        </mxCell>
        <mxCell id="JbGsMbYujRYo7UXqijJR-46" value="-" style="text;html=1;align=center;verticalAlign=middle;resizable=0;points=[];autosize=1;strokeColor=none;fillColor=none;fontSize=20;" vertex="1" parent="JbGsMbYujRYo7UXqijJR-44">
          <mxGeometry x="-6" y="44.16333333333333" width="30" height="40" as="geometry" />
        </mxCell>
        <mxCell id="JbGsMbYujRYo7UXqijJR-47" value="+" style="text;html=1;align=center;verticalAlign=middle;resizable=0;points=[];autosize=1;strokeColor=none;fillColor=none;fontSize=20;" vertex="1" parent="JbGsMbYujRYo7UXqijJR-44">
          <mxGeometry x="-10" y="-9.17" width="40" height="40" as="geometry" />
        </mxCell>
        <mxCell id="JbGsMbYujRYo7UXqijJR-48" value="" style="whiteSpace=wrap;html=1;aspect=fixed;" vertex="1" parent="1">
          <mxGeometry x="240" y="562.5" width="80" height="80" as="geometry" />
        </mxCell>
        <mxCell id="JbGsMbYujRYo7UXqijJR-49" value="" style="endArrow=none;html=1;rounded=0;edgeStyle=orthogonalEdgeStyle;entryX=0;entryY=0.25;entryDx=0;entryDy=0;fillColor=#60a917;strokeColor=#2D7600;strokeWidth=10;dashed=1;dashPattern=1 1;" edge="1" parent="1" target="JbGsMbYujRYo7UXqijJR-58">
          <mxGeometry width="50" height="50" relative="1" as="geometry">
            <mxPoint x="160" y="482.5" as="sourcePoint" />
            <mxPoint x="400" y="582.5" as="targetPoint" />
            <Array as="points">
              <mxPoint x="401" y="482.5" />
              <mxPoint x="401" y="592.5" />
              <mxPoint x="480" y="592.5" />
            </Array>
          </mxGeometry>
        </mxCell>
        <mxCell id="JbGsMbYujRYo7UXqijJR-50" value="" style="endArrow=none;html=1;rounded=0;exitX=0.5;exitY=0;exitDx=0;exitDy=0;fillColor=#60a917;strokeColor=#2D7600;strokeWidth=10;dashed=1;dashPattern=1 1;" edge="1" parent="1" source="JbGsMbYujRYo7UXqijJR-48">
          <mxGeometry width="50" height="50" relative="1" as="geometry">
            <mxPoint x="330" y="622.5" as="sourcePoint" />
            <mxPoint x="280" y="482.5" as="targetPoint" />
          </mxGeometry>
        </mxCell>
        <mxCell id="JbGsMbYujRYo7UXqijJR-51" value="" style="endArrow=none;html=1;rounded=0;edgeStyle=orthogonalEdgeStyle;entryX=0;entryY=0.75;entryDx=0;entryDy=0;" edge="1" parent="1" target="JbGsMbYujRYo7UXqijJR-58">
          <mxGeometry width="50" height="50" relative="1" as="geometry">
            <mxPoint x="290" y="723" as="sourcePoint" />
            <mxPoint x="400" y="622.5" as="targetPoint" />
            <Array as="points">
              <mxPoint x="400" y="722.5" />
              <mxPoint x="400" y="612.5" />
              <mxPoint x="480" y="612.5" />
            </Array>
          </mxGeometry>
        </mxCell>
        <mxCell id="JbGsMbYujRYo7UXqijJR-52" value="" style="endArrow=none;html=1;rounded=0;entryX=0.5;entryY=1;entryDx=0;entryDy=0;fillColor=#60a917;strokeColor=#2D7600;strokeWidth=10;dashed=1;dashPattern=1 1;" edge="1" parent="1">
          <mxGeometry width="50" height="50" relative="1" as="geometry">
            <mxPoint x="290" y="722.5" as="sourcePoint" />
            <mxPoint x="289.9999999999998" y="642.5" as="targetPoint" />
          </mxGeometry>
        </mxCell>
        <mxCell id="JbGsMbYujRYo7UXqijJR-53" value="" style="endArrow=none;html=1;rounded=0;edgeStyle=orthogonalEdgeStyle;fillColor=#60a917;strokeColor=#2D7600;strokeWidth=10;dashed=1;dashPattern=1 1;" edge="1" parent="1">
          <mxGeometry width="50" height="50" relative="1" as="geometry">
            <mxPoint x="559" y="602.5" as="sourcePoint" />
            <mxPoint x="722" y="482.5" as="targetPoint" />
            <Array as="points">
              <mxPoint x="639" y="602.5" />
              <mxPoint x="639" y="482.5" />
              <mxPoint x="699" y="482.5" />
            </Array>
          </mxGeometry>
        </mxCell>
        <mxCell id="JbGsMbYujRYo7UXqijJR-54" value="" style="group" vertex="1" connectable="0" parent="1">
          <mxGeometry x="720" y="442.5" width="160" height="80" as="geometry" />
        </mxCell>
        <mxCell id="JbGsMbYujRYo7UXqijJR-55" value="Batería 1" style="rounded=0;whiteSpace=wrap;html=1;" vertex="1" parent="JbGsMbYujRYo7UXqijJR-54">
          <mxGeometry width="160" height="80" as="geometry" />
        </mxCell>
        <mxCell id="JbGsMbYujRYo7UXqijJR-56" value="-" style="text;html=1;align=center;verticalAlign=middle;resizable=0;points=[];autosize=1;strokeColor=none;fillColor=none;fontSize=20;" vertex="1" parent="JbGsMbYujRYo7UXqijJR-54">
          <mxGeometry x="-6" y="44.16333333333333" width="30" height="40" as="geometry" />
        </mxCell>
        <mxCell id="JbGsMbYujRYo7UXqijJR-57" value="+" style="text;html=1;align=center;verticalAlign=middle;resizable=0;points=[];autosize=1;strokeColor=none;fillColor=none;fontSize=20;" vertex="1" parent="JbGsMbYujRYo7UXqijJR-54">
          <mxGeometry x="-10" y="-9.17" width="40" height="40" as="geometry" />
        </mxCell>
        <mxCell id="JbGsMbYujRYo7UXqijJR-58" value="" style="whiteSpace=wrap;html=1;aspect=fixed;" vertex="1" parent="1">
          <mxGeometry x="480" y="562.5" width="80" height="80" as="geometry" />
        </mxCell>
        <mxCell id="JbGsMbYujRYo7UXqijJR-59" value="" style="endArrow=none;html=1;rounded=0;fillColor=#60a917;strokeColor=#2D7600;strokeWidth=10;dashed=1;dashPattern=1 1;" edge="1" parent="1">
          <mxGeometry width="50" height="50" relative="1" as="geometry">
            <mxPoint x="630" y="602.5" as="sourcePoint" />
            <mxPoint x="720" y="602.5" as="targetPoint" />
          </mxGeometry>
        </mxCell>
        <mxCell id="JbGsMbYujRYo7UXqijJR-60" value="" style="endArrow=none;html=1;rounded=0;edgeStyle=orthogonalEdgeStyle;fillColor=#60a917;strokeColor=#2D7600;strokeWidth=10;dashed=1;dashPattern=1 1;" edge="1" parent="1">
          <mxGeometry width="50" height="50" relative="1" as="geometry">
            <mxPoint x="559" y="602.5" as="sourcePoint" />
            <mxPoint x="720" y="722.5" as="targetPoint" />
            <Array as="points">
              <mxPoint x="639" y="602.5" />
              <mxPoint x="639" y="722.5" />
              <mxPoint x="720" y="722.5" />
            </Array>
          </mxGeometry>
        </mxCell>
        <mxCell id="JbGsMbYujRYo7UXqijJR-61" value="" style="html=1;shape=mxgraph.electrical.electro-mechanical.twoWaySwitch;aspect=fixed;elSwitchState=2;rotation=90;" vertex="1" parent="1">
          <mxGeometry x="242.5" y="589.5" width="75" height="26" as="geometry" />
        </mxCell>
        <mxCell id="JbGsMbYujRYo7UXqijJR-62" value="" style="html=1;shape=mxgraph.electrical.electro-mechanical.twoWaySwitch;aspect=fixed;elSwitchState=2;rotation=-180;flipV=1;" vertex="1" parent="1">
          <mxGeometry x="482.5" y="589.5" width="75" height="26" as="geometry" />
        </mxCell>
        <mxCell id="JbGsMbYujRYo7UXqijJR-63" value="" style="whiteSpace=wrap;html=1;aspect=fixed;" vertex="1" parent="1">
          <mxGeometry x="40" y="820" width="120" height="120" as="geometry" />
        </mxCell>
        <mxCell id="JbGsMbYujRYo7UXqijJR-64" value="ESP8266" style="rounded=0;whiteSpace=wrap;html=1;" vertex="1" parent="1">
          <mxGeometry x="720" y="1080" width="60" height="82.5" as="geometry" />
        </mxCell>
        <mxCell id="JbGsMbYujRYo7UXqijJR-65" value="" style="group" vertex="1" connectable="0" parent="1">
          <mxGeometry y="1082.5" width="160" height="80" as="geometry" />
        </mxCell>
        <mxCell id="JbGsMbYujRYo7UXqijJR-66" value="Batería Backup" style="rounded=0;whiteSpace=wrap;html=1;" vertex="1" parent="JbGsMbYujRYo7UXqijJR-65">
          <mxGeometry width="160" height="80" as="geometry" />
        </mxCell>
        <mxCell id="JbGsMbYujRYo7UXqijJR-67" value="-" style="text;html=1;align=center;verticalAlign=middle;resizable=0;points=[];autosize=1;strokeColor=none;fillColor=none;fontSize=20;" vertex="1" parent="JbGsMbYujRYo7UXqijJR-65">
          <mxGeometry x="132" y="46.66333333333333" width="30" height="40" as="geometry" />
        </mxCell>
        <mxCell id="JbGsMbYujRYo7UXqijJR-68" value="+" style="text;html=1;align=center;verticalAlign=middle;resizable=0;points=[];autosize=1;strokeColor=none;fillColor=none;fontSize=20;" vertex="1" parent="JbGsMbYujRYo7UXqijJR-65">
          <mxGeometry x="128" y="-6.67" width="40" height="40" as="geometry" />
        </mxCell>
        <mxCell id="JbGsMbYujRYo7UXqijJR-69" value="" style="group" vertex="1" connectable="0" parent="1">
          <mxGeometry x="46.870000000000005" y="840" width="106.25" height="83.75" as="geometry" />
        </mxCell>
        <mxCell id="JbGsMbYujRYo7UXqijJR-70" value="" style="verticalLabelPosition=bottom;shadow=0;dashed=0;align=center;html=1;verticalAlign=top;shape=mxgraph.electrical.opto_electronics.solar_cell;pointerEvents=1;rotation=-90;" vertex="1" parent="JbGsMbYujRYo7UXqijJR-69">
          <mxGeometry x="35" y="12.5" width="83.75" height="58.75" as="geometry" />
        </mxCell>
        <mxCell id="JbGsMbYujRYo7UXqijJR-71" value="Panel solar" style="text;html=1;align=center;verticalAlign=middle;resizable=0;points=[];autosize=1;strokeColor=none;fillColor=none;" vertex="1" parent="JbGsMbYujRYo7UXqijJR-69">
          <mxGeometry y="66.25" width="80" height="30" as="geometry" />
        </mxCell>
        <mxCell id="JbGsMbYujRYo7UXqijJR-72" value="" style="html=1;verticalLabelPosition=bottom;align=center;labelBackgroundColor=#ffffff;verticalAlign=top;strokeWidth=2;shadow=0;dashed=0;shape=mxgraph.ios7.icons.sun;pointerEvents=1" vertex="1" parent="1">
          <mxGeometry x="51.879999999999995" y="830" width="40" height="37.5" as="geometry" />
        </mxCell>
        <mxCell id="JbGsMbYujRYo7UXqijJR-73" value="" style="group" vertex="1" connectable="0" parent="1">
          <mxGeometry x="720" y="960" width="160" height="80" as="geometry" />
        </mxCell>
        <mxCell id="JbGsMbYujRYo7UXqijJR-74" value="Batería 2" style="rounded=0;whiteSpace=wrap;html=1;" vertex="1" parent="JbGsMbYujRYo7UXqijJR-73">
          <mxGeometry width="160" height="80" as="geometry" />
        </mxCell>
        <mxCell id="JbGsMbYujRYo7UXqijJR-75" value="-" style="text;html=1;align=center;verticalAlign=middle;resizable=0;points=[];autosize=1;strokeColor=none;fillColor=none;fontSize=20;" vertex="1" parent="JbGsMbYujRYo7UXqijJR-73">
          <mxGeometry x="-6" y="46.66333333333333" width="30" height="40" as="geometry" />
        </mxCell>
        <mxCell id="JbGsMbYujRYo7UXqijJR-76" value="+" style="text;html=1;align=center;verticalAlign=middle;resizable=0;points=[];autosize=1;strokeColor=none;fillColor=none;fontSize=20;" vertex="1" parent="JbGsMbYujRYo7UXqijJR-73">
          <mxGeometry x="-10" y="-6.67" width="40" height="40" as="geometry" />
        </mxCell>
        <mxCell id="JbGsMbYujRYo7UXqijJR-77" value="" style="whiteSpace=wrap;html=1;aspect=fixed;" vertex="1" parent="1">
          <mxGeometry x="240" y="962.5" width="80" height="80" as="geometry" />
        </mxCell>
        <mxCell id="JbGsMbYujRYo7UXqijJR-78" value="" style="endArrow=none;html=1;rounded=0;edgeStyle=orthogonalEdgeStyle;entryX=0;entryY=0.25;entryDx=0;entryDy=0;" edge="1" parent="1" target="JbGsMbYujRYo7UXqijJR-87">
          <mxGeometry width="50" height="50" relative="1" as="geometry">
            <mxPoint x="160" y="882.5" as="sourcePoint" />
            <mxPoint x="400" y="982.5" as="targetPoint" />
            <Array as="points">
              <mxPoint x="401" y="882.5" />
              <mxPoint x="401" y="992.5" />
              <mxPoint x="480" y="992.5" />
            </Array>
          </mxGeometry>
        </mxCell>
        <mxCell id="JbGsMbYujRYo7UXqijJR-79" value="" style="endArrow=none;html=1;rounded=0;exitX=0.5;exitY=0;exitDx=0;exitDy=0;" edge="1" parent="1" source="JbGsMbYujRYo7UXqijJR-77">
          <mxGeometry width="50" height="50" relative="1" as="geometry">
            <mxPoint x="330" y="1022.5" as="sourcePoint" />
            <mxPoint x="280" y="882.5" as="targetPoint" />
          </mxGeometry>
        </mxCell>
        <mxCell id="JbGsMbYujRYo7UXqijJR-80" value="" style="endArrow=none;html=1;rounded=0;edgeStyle=orthogonalEdgeStyle;entryX=0;entryY=0.75;entryDx=0;entryDy=0;fillColor=#60a917;strokeColor=#2D7600;dashed=1;dashPattern=1 1;strokeWidth=10;" edge="1" parent="1" target="JbGsMbYujRYo7UXqijJR-87">
          <mxGeometry width="50" height="50" relative="1" as="geometry">
            <mxPoint x="160" y="1122.5" as="sourcePoint" />
            <mxPoint x="400" y="1022.5" as="targetPoint" />
            <Array as="points">
              <mxPoint x="400" y="1122.5" />
              <mxPoint x="400" y="1012.5" />
              <mxPoint x="480" y="1012.5" />
            </Array>
          </mxGeometry>
        </mxCell>
        <mxCell id="JbGsMbYujRYo7UXqijJR-81" value="" style="endArrow=none;html=1;rounded=0;entryX=0.5;entryY=1;entryDx=0;entryDy=0;" edge="1" parent="1">
          <mxGeometry width="50" height="50" relative="1" as="geometry">
            <mxPoint x="290" y="1122.5" as="sourcePoint" />
            <mxPoint x="289.9999999999998" y="1042.5" as="targetPoint" />
          </mxGeometry>
        </mxCell>
        <mxCell id="JbGsMbYujRYo7UXqijJR-82" value="" style="endArrow=none;html=1;rounded=0;edgeStyle=orthogonalEdgeStyle;fillColor=#60a917;strokeColor=#2D7600;dashed=1;dashPattern=1 1;strokeWidth=10;" edge="1" parent="1">
          <mxGeometry width="50" height="50" relative="1" as="geometry">
            <mxPoint x="559" y="1002.5" as="sourcePoint" />
            <mxPoint x="722" y="882.5" as="targetPoint" />
            <Array as="points">
              <mxPoint x="639" y="1002.5" />
              <mxPoint x="639" y="882.5" />
              <mxPoint x="699" y="882.5" />
            </Array>
          </mxGeometry>
        </mxCell>
        <mxCell id="JbGsMbYujRYo7UXqijJR-83" value="" style="group" vertex="1" connectable="0" parent="1">
          <mxGeometry x="720" y="840" width="160" height="80" as="geometry" />
        </mxCell>
        <mxCell id="JbGsMbYujRYo7UXqijJR-84" value="Batería 1" style="rounded=0;whiteSpace=wrap;html=1;" vertex="1" parent="JbGsMbYujRYo7UXqijJR-83">
          <mxGeometry width="160" height="80" as="geometry" />
        </mxCell>
        <mxCell id="JbGsMbYujRYo7UXqijJR-85" value="-" style="text;html=1;align=center;verticalAlign=middle;resizable=0;points=[];autosize=1;strokeColor=none;fillColor=none;fontSize=20;" vertex="1" parent="JbGsMbYujRYo7UXqijJR-83">
          <mxGeometry x="-6" y="46.66333333333333" width="30" height="40" as="geometry" />
        </mxCell>
        <mxCell id="JbGsMbYujRYo7UXqijJR-86" value="+" style="text;html=1;align=center;verticalAlign=middle;resizable=0;points=[];autosize=1;strokeColor=none;fillColor=none;fontSize=20;" vertex="1" parent="JbGsMbYujRYo7UXqijJR-83">
          <mxGeometry x="-10" y="-6.67" width="40" height="40" as="geometry" />
        </mxCell>
        <mxCell id="JbGsMbYujRYo7UXqijJR-87" value="" style="whiteSpace=wrap;html=1;aspect=fixed;" vertex="1" parent="1">
          <mxGeometry x="480" y="962.5" width="80" height="80" as="geometry" />
        </mxCell>
        <mxCell id="JbGsMbYujRYo7UXqijJR-88" value="" style="endArrow=none;html=1;rounded=0;fillColor=#60a917;strokeColor=#2D7600;dashed=1;dashPattern=1 1;strokeWidth=10;" edge="1" parent="1">
          <mxGeometry width="50" height="50" relative="1" as="geometry">
            <mxPoint x="630" y="1002.5" as="sourcePoint" />
            <mxPoint x="720" y="1002.5" as="targetPoint" />
          </mxGeometry>
        </mxCell>
        <mxCell id="JbGsMbYujRYo7UXqijJR-89" value="" style="endArrow=none;html=1;rounded=0;edgeStyle=orthogonalEdgeStyle;fillColor=#60a917;strokeColor=#2D7600;dashed=1;dashPattern=1 1;strokeWidth=10;" edge="1" parent="1">
          <mxGeometry width="50" height="50" relative="1" as="geometry">
            <mxPoint x="559" y="1002.5" as="sourcePoint" />
            <mxPoint x="720" y="1122.5" as="targetPoint" />
            <Array as="points">
              <mxPoint x="639" y="1002.5" />
              <mxPoint x="639" y="1122.5" />
              <mxPoint x="720" y="1122.5" />
            </Array>
          </mxGeometry>
        </mxCell>
        <mxCell id="JbGsMbYujRYo7UXqijJR-90" value="" style="html=1;shape=mxgraph.electrical.electro-mechanical.twoWaySwitch;aspect=fixed;elSwitchState=2;rotation=90;flipH=0;flipV=1;" vertex="1" parent="1">
          <mxGeometry x="242.5" y="989.5" width="75" height="26" as="geometry" />
        </mxCell>
        <mxCell id="JbGsMbYujRYo7UXqijJR-91" value="" style="html=1;shape=mxgraph.electrical.electro-mechanical.twoWaySwitch;aspect=fixed;elSwitchState=2;rotation=-180;flipV=0;" vertex="1" parent="1">
          <mxGeometry x="482.5" y="989.5" width="75" height="26" as="geometry" />
        </mxCell>
        <mxCell id="JbGsMbYujRYo7UXqijJR-92" value="Relé 2" style="text;html=1;align=center;verticalAlign=middle;resizable=0;points=[];autosize=1;strokeColor=none;fillColor=none;" vertex="1" parent="1">
          <mxGeometry x="490" y="932.5" width="60" height="30" as="geometry" />
        </mxCell>
        <mxCell id="JbGsMbYujRYo7UXqijJR-93" value="Relé 2" style="text;html=1;align=center;verticalAlign=middle;resizable=0;points=[];autosize=1;strokeColor=none;fillColor=none;" vertex="1" parent="1">
          <mxGeometry x="490" y="532.5" width="60" height="30" as="geometry" />
        </mxCell>
        <mxCell id="JbGsMbYujRYo7UXqijJR-94" value="Relé 2" style="text;html=1;align=center;verticalAlign=middle;resizable=0;points=[];autosize=1;strokeColor=none;fillColor=none;" vertex="1" parent="1">
          <mxGeometry x="490" y="132.5" width="60" height="30" as="geometry" />
        </mxCell>
        <mxCell id="JbGsMbYujRYo7UXqijJR-96" value="Relé 1" style="text;html=1;align=center;verticalAlign=middle;resizable=0;points=[];autosize=1;strokeColor=none;fillColor=none;" vertex="1" parent="1">
          <mxGeometry x="182.5" y="587.5" width="60" height="30" as="geometry" />
        </mxCell>
        <mxCell id="JbGsMbYujRYo7UXqijJR-97" value="Relé 1" style="text;html=1;align=center;verticalAlign=middle;resizable=0;points=[];autosize=1;strokeColor=none;fillColor=none;" vertex="1" parent="1">
          <mxGeometry x="180" y="985" width="60" height="30" as="geometry" />
        </mxCell>
        <mxCell id="JbGsMbYujRYo7UXqijJR-98" value="Relé 1" style="text;html=1;align=center;verticalAlign=middle;resizable=0;points=[];autosize=1;strokeColor=none;fillColor=none;" vertex="1" parent="1">
          <mxGeometry x="182.5" y="185" width="60" height="30" as="geometry" />
        </mxCell>
        <mxCell id="JbGsMbYujRYo7UXqijJR-100" value="" style="endArrow=none;html=1;rounded=0;fillColor=#60a917;strokeColor=#2D7600;strokeWidth=10;dashed=1;dashPattern=1 1;" edge="1" parent="1">
          <mxGeometry width="50" height="50" relative="1" as="geometry">
            <mxPoint x="160" y="720" as="sourcePoint" />
            <mxPoint x="290" y="720" as="targetPoint" />
          </mxGeometry>
        </mxCell>
        <mxCell id="JbGsMbYujRYo7UXqijJR-106" value="" style="group" vertex="1" connectable="0" parent="1">
          <mxGeometry x="280" y="562.5" width="10" height="79" as="geometry" />
        </mxCell>
        <mxCell id="JbGsMbYujRYo7UXqijJR-101" value="" style="endArrow=none;html=1;rounded=0;fillColor=#60a917;strokeColor=#2D7600;strokeWidth=10;dashed=1;dashPattern=1 1;" edge="1" parent="JbGsMbYujRYo7UXqijJR-106">
          <mxGeometry width="50" height="50" relative="1" as="geometry">
            <mxPoint y="20" as="sourcePoint" />
            <mxPoint as="targetPoint" />
          </mxGeometry>
        </mxCell>
        <mxCell id="JbGsMbYujRYo7UXqijJR-102" value="" style="endArrow=none;html=1;rounded=0;fillColor=#60a917;strokeColor=#2D7600;strokeWidth=10;dashed=1;dashPattern=1 1;" edge="1" parent="JbGsMbYujRYo7UXqijJR-106">
          <mxGeometry width="50" height="50" relative="1" as="geometry">
            <mxPoint x="10" y="79" as="sourcePoint" />
            <mxPoint x="10" y="59" as="targetPoint" />
          </mxGeometry>
        </mxCell>
        <mxCell id="JbGsMbYujRYo7UXqijJR-104" value="" style="endArrow=none;html=1;rounded=0;fillColor=#60a917;strokeColor=#2D7600;strokeWidth=10;dashed=1;dashPattern=1 1;" edge="1" parent="JbGsMbYujRYo7UXqijJR-106">
          <mxGeometry width="50" height="50" relative="1" as="geometry">
            <mxPoint x="10" y="59" as="sourcePoint" />
            <mxPoint y="19" as="targetPoint" />
          </mxGeometry>
        </mxCell>
        <mxCell id="JbGsMbYujRYo7UXqijJR-107" value="" style="group;rotation=-90;" vertex="1" connectable="0" parent="1">
          <mxGeometry x="510" y="967" width="10" height="79" as="geometry" />
        </mxCell>
        <mxCell id="JbGsMbYujRYo7UXqijJR-108" value="" style="endArrow=none;html=1;rounded=0;fillColor=#60a917;strokeColor=#2D7600;strokeWidth=10;dashed=1;dashPattern=1 1;" edge="1" parent="JbGsMbYujRYo7UXqijJR-107">
          <mxGeometry width="50" height="50" relative="1" as="geometry">
            <mxPoint x="-14" y="45" as="sourcePoint" />
            <mxPoint x="-34" y="45" as="targetPoint" />
          </mxGeometry>
        </mxCell>
        <mxCell id="JbGsMbYujRYo7UXqijJR-109" value="" style="endArrow=none;html=1;rounded=0;fillColor=#60a917;strokeColor=#2D7600;strokeWidth=10;dashed=1;dashPattern=1 1;" edge="1" parent="JbGsMbYujRYo7UXqijJR-107">
          <mxGeometry width="50" height="50" relative="1" as="geometry">
            <mxPoint x="45" y="35" as="sourcePoint" />
            <mxPoint x="25" y="35" as="targetPoint" />
          </mxGeometry>
        </mxCell>
        <mxCell id="JbGsMbYujRYo7UXqijJR-110" value="" style="endArrow=none;html=1;rounded=0;fillColor=#60a917;strokeColor=#2D7600;strokeWidth=10;dashed=1;dashPattern=1 1;" edge="1" parent="JbGsMbYujRYo7UXqijJR-107">
          <mxGeometry width="50" height="50" relative="1" as="geometry">
            <mxPoint x="25" y="35" as="sourcePoint" />
            <mxPoint x="-15" y="45" as="targetPoint" />
          </mxGeometry>
        </mxCell>
        <mxCell id="JbGsMbYujRYo7UXqijJR-111" value="" style="group;rotation=90;flipV=1;" vertex="1" connectable="0" parent="1">
          <mxGeometry x="520" y="559" width="10" height="79" as="geometry" />
        </mxCell>
        <mxCell id="JbGsMbYujRYo7UXqijJR-112" value="" style="endArrow=none;html=1;rounded=0;fillColor=#60a917;strokeColor=#2D7600;strokeWidth=10;dashed=1;dashPattern=1 1;" edge="1" parent="JbGsMbYujRYo7UXqijJR-111">
          <mxGeometry width="50" height="50" relative="1" as="geometry">
            <mxPoint x="25" y="44" as="sourcePoint" />
            <mxPoint x="45" y="44" as="targetPoint" />
          </mxGeometry>
        </mxCell>
        <mxCell id="JbGsMbYujRYo7UXqijJR-113" value="" style="endArrow=none;html=1;rounded=0;fillColor=#60a917;strokeColor=#2D7600;strokeWidth=10;dashed=1;dashPattern=1 1;" edge="1" parent="JbGsMbYujRYo7UXqijJR-111">
          <mxGeometry width="50" height="50" relative="1" as="geometry">
            <mxPoint x="-34" y="34" as="sourcePoint" />
            <mxPoint x="-14" y="34" as="targetPoint" />
          </mxGeometry>
        </mxCell>
        <mxCell id="JbGsMbYujRYo7UXqijJR-114" value="" style="endArrow=none;html=1;rounded=0;fillColor=#60a917;strokeColor=#2D7600;strokeWidth=10;dashed=1;dashPattern=1 1;" edge="1" parent="JbGsMbYujRYo7UXqijJR-111">
          <mxGeometry width="50" height="50" relative="1" as="geometry">
            <mxPoint x="-14" y="34" as="sourcePoint" />
            <mxPoint x="26" y="44" as="targetPoint" />
          </mxGeometry>
        </mxCell>
      </root>
    </mxGraphModel>
  </diagram>
</mxfile>
